<svg version="1.1" id="Layer_1" xmlns="http://www.w3.org/2000/svg" xmlns:xlink="http://www.w3.org/1999/xlink" x="0px" y="0px"
	 width="100%" viewBox="0 0 130 141" enable-background="new 0 0 130 141" xml:space="preserve">
<path fill="#000000" opacity="1.000000" stroke="none" 
	d="
M75.000000,142.000000 
	C50.000000,142.000000 25.500000,142.000000 1.000000,142.000000 
	C1.000000,95.000000 1.000000,48.000000 1.000000,1.000000 
	C44.333332,1.000000 87.666664,1.000000 131.000000,1.000000 
	C131.000000,48.000000 131.000000,95.000000 131.000000,142.000000 
	C112.500000,142.000000 94.000000,142.000000 75.000000,142.000000 
M85.498489,135.994095 
	C94.500374,135.994278 103.507759,136.189484 112.502457,135.935287 
	C120.226654,135.716995 122.939690,130.547379 119.676872,123.403885 
	C118.687561,121.237946 117.780693,118.660995 118.004089,116.387039 
	C118.589485,110.428299 120.585167,104.542358 120.658867,98.610504 
	C120.973557,73.282379 120.788109,47.948139 120.806396,22.616148 
	C120.809677,18.080383 118.659569,15.977727 114.083481,15.986492 
	C87.584938,16.037245 61.085907,15.954921 34.588120,16.106716 
	C31.740641,16.123028 28.496538,16.699856 26.130358,18.149416 
	C18.318140,22.935314 14.261574,30.239265 14.223611,39.434975 
	C14.125223,63.266693 14.712083,87.114510 14.008658,110.925865 
	C13.529814,127.135063 26.576057,137.385925 40.226395,137.010651 
	C54.982136,136.604965 69.741402,136.327484 85.498489,135.994095 
z"/>
<path fill="#FAFBFE" opacity="1.000000" stroke="none" 
	d="
M84.998810,135.994095 
	C69.741402,136.327484 54.982136,136.604965 40.226395,137.010651 
	C26.576057,137.385925 13.529814,127.135063 14.008658,110.925865 
	C14.712083,87.114510 14.125223,63.266693 14.223611,39.434975 
	C14.261574,30.239265 18.318140,22.935314 26.130358,18.149416 
	C28.496538,16.699856 31.740641,16.123028 34.588120,16.106716 
	C61.085907,15.954921 87.584938,16.037245 114.083481,15.986492 
	C118.659569,15.977727 120.809677,18.080383 120.806396,22.616148 
	C120.788109,47.948139 120.973557,73.282379 120.658867,98.610504 
	C120.585167,104.542358 118.589485,110.428299 118.004089,116.387039 
	C117.780693,118.660995 118.687561,121.237946 119.676872,123.403885 
	C122.939690,130.547379 120.226654,135.716995 112.502457,135.935287 
	C103.507759,136.189484 94.500374,135.994278 84.998810,135.994095 
M36.337257,120.718788 
	C53.911934,120.746147 71.486610,120.773514 89.891754,120.986626 
	C94.309059,120.986626 98.726364,120.986626 103.162079,120.986626 
	C103.162079,115.713387 103.162079,111.099487 103.162079,106.041214 
	C81.315758,106.041214 59.582741,105.875557 37.860332,106.279785 
	C35.509426,106.323532 32.137505,109.216927 31.152245,111.584587 
	C29.623152,115.259132 31.626535,118.588318 36.337257,120.718788 
M69.500031,45.994492 
	C61.731358,45.994492 53.962685,45.994492 46.002777,45.994492 
	C46.002777,48.496758 46.002777,50.562256 46.002777,53.040798 
	C62.110340,53.040798 78.026268,53.102840 93.938835,52.900406 
	C94.993027,52.886993 96.561287,51.019825 96.940865,49.734474 
	C97.576080,47.583508 96.821350,45.919415 93.931702,45.959446 
	C86.122475,46.067627 78.310738,45.995243 69.500031,45.994492 
M49.608353,68.049583 
	C64.239540,68.049210 78.870903,68.012878 93.501747,68.083740 
	C95.950478,68.095589 97.635063,67.440331 96.966644,64.774834 
	C96.618988,63.388496 95.295967,61.172848 94.388412,61.160374 
	C78.311943,60.939445 62.231598,61.000275 45.403519,61.000275 
	C47.066265,63.636898 43.060322,67.646805 49.608353,68.049583 
z"/>
<path fill="#000000" opacity="1.000000" stroke="none" 
	d="
M35.634743,120.152504 
	C31.626535,118.588318 29.623152,115.259132 31.152245,111.584587 
	C32.137505,109.216927 35.509426,106.323532 37.860332,106.279785 
	C59.582741,105.875557 81.315758,106.041214 103.162079,106.041214 
	C103.162079,111.099487 103.162079,115.713387 103.162079,120.986626 
	C98.726364,120.986626 94.309059,120.986626 89.234985,120.535179 
	C70.930389,120.106659 53.282566,120.129578 35.634743,120.152504 
z"/>
<path fill="#000000" opacity="1.000000" stroke="none" 
	d="
M70.000015,45.994492 
	C78.310738,45.995243 86.122475,46.067627 93.931702,45.959446 
	C96.821350,45.919415 97.576080,47.583508 96.940865,49.734474 
	C96.561287,51.019825 94.993027,52.886993 93.938835,52.900406 
	C78.026268,53.102840 62.110340,53.040798 46.002777,53.040798 
	C46.002777,50.562256 46.002777,48.496758 46.002777,45.994492 
	C53.962685,45.994492 61.731358,45.994492 70.000015,45.994492 
z"/>
<path fill="#000001" opacity="1.000000" stroke="none" 
	d="
M49.120056,68.049751 
	C43.060322,67.646805 47.066265,63.636898 45.403519,61.000275 
	C62.231598,61.000275 78.311943,60.939445 94.388412,61.160374 
	C95.295967,61.172848 96.618988,63.388496 96.966644,64.774834 
	C97.635063,67.440331 95.950478,68.095589 93.501747,68.083740 
	C78.870903,68.012878 64.239540,68.049210 49.120056,68.049751 
z"/>
<path fill="#4774CF" opacity="1.000000" stroke="none" 
	d="
M35.986000,120.435646 
	C53.282566,120.129578 70.930389,120.106659 88.819748,120.442307 
	C71.486610,120.773514 53.911934,120.746147 35.986000,120.435646 
z"/>
</svg>