<?xml version="1.0" standalone="no"?>
<!DOCTYPE svg PUBLIC "-//W3C//DTD SVG 20010904//EN"
 "http://www.w3.org/TR/2001/REC-SVG-20010904/DTD/svg10.dtd">
<svg version="1.0" xmlns="http://www.w3.org/2000/svg"
 width="157.000000pt" height="164.000000pt" viewBox="0 0 157.000000 164.000000"
 preserveAspectRatio="xMidYMid meet">

<g transform="translate(0.000000,164.000000) scale(0.100000,-0.100000)"
fill="#000000" stroke="none">
<path d="M775 1384 c-239 -37 -432 -206 -501 -439 -24 -81 -24 -229 0 -310 61
-206 215 -360 421 -421 81 -24 229 -24 310 0 206 61 360 215 421 421 24 81 24
229 0 310 -60 203 -216 360 -415 419 -57 17 -185 27 -236 20z m171 -421 c22
-11 53 -39 69 -62 26 -37 30 -51 30 -111 0 -60 -4 -74 -30 -111 -87 -123 -268
-113 -337 20 -36 68 -36 114 0 182 52 99 167 135 268 82z"/>
<path d="M830 832 c0 -64 2 -70 30 -90 34 -26 43 -27 59 -8 9 11 6 18 -19 36
-27 19 -30 27 -30 76 0 47 -2 54 -20 54 -18 0 -20 -7 -20 -68z"/>
</g>
</svg>
