<?xml version="1.0" standalone="no"?>
<!DOCTYPE svg PUBLIC "-//W3C//DTD SVG 20010904//EN"
 "http://www.w3.org/TR/2001/REC-SVG-20010904/DTD/svg10.dtd">
<svg version="1.0" xmlns="http://www.w3.org/2000/svg"
 width="135.000000pt" height="127.000000pt" viewBox="0 0 135.000000 127.000000"
 preserveAspectRatio="xMidYMid meet">

<g transform="translate(0.000000,127.000000) scale(0.100000,-0.100000)"
fill="#000000" stroke="none">
<path d="M635 1194 c-239 -37 -432 -206 -501 -439 -24 -81 -24 -229 0 -310 61
-206 215 -360 421 -421 81 -24 229 -24 310 0 206 61 360 215 421 421 24 81 24
229 0 310 -60 203 -216 360 -415 419 -57 17 -185 27 -236 20z m105 -418 c0
-18 7 -25 30 -30 37 -7 48 -30 26 -55 -13 -14 -27 -17 -72 -13 -49 4 -56 3
-52 -13 2 -11 23 -23 61 -35 71 -22 85 -33 93 -75 8 -46 -18 -94 -56 -102 -23
-4 -30 -11 -30 -29 0 -20 -5 -24 -30 -24 -25 0 -30 4 -30 24 0 18 -7 25 -30
30 -17 3 -33 13 -37 22 -10 28 21 46 83 48 79 1 82 21 5 42 -73 21 -105 51
-105 99 0 39 36 85 66 85 13 0 18 7 18 25 0 21 5 25 30 25 25 0 30 -4 30 -24z"/>
</g>
</svg>
